<?xml version="1.0" encoding="utf-8"?>
<!-- Generator: Adobe Illustrator 22.1.0, SVG Export Plug-In . SVG Version: 6.00 Build 0)  -->
<svg version="1.1" id="Layer_1" xmlns="http://www.w3.org/2000/svg" xmlns:xlink="http://www.w3.org/1999/xlink" x="0px" y="0px"
	 viewBox="0 0 828 306" style="enable-background:new 0 0 828 306;" xml:space="preserve">
<style type="text/css">
	.st0{fill:#1966BF;}
	.st1{fill:#40C2A5;}
</style>
<g>
	<g>
		<path class="st0" d="M420.6,168.8H313.4c5.1,18.4,18.4,27.4,39.6,27.4c16.5,0,31.6-4.8,45.5-14.1l16.5,28.5
			c-17.8,13.6-39.1,20.2-63.8,20.2c-25.8,0-45.5-7.4-59.3-22.1c-13.6-14.6-20.5-32.7-20.5-54.3c0-22.1,7.2-40.2,21.3-54.5
			c14.1-14.6,32.7-21.8,55.6-21.8c21.5,0,39.1,6.6,52.9,19.7s20.7,30.8,20.7,53.5C421.9,156.3,421.4,162.2,420.6,168.8z
			 M313.2,139.1h68.6c-4-16.8-16.2-27.1-33.5-27.1C331.3,111.9,317.7,122,313.2,139.1z"/>
		<path class="st0" d="M556,81.9h39.4v145.7H556v-14.9c-12.5,12.5-27.4,18.6-44.9,18.6c-20.7,0-38-7.4-51.6-22.1
			c-13.6-14.9-20.2-33.2-20.2-55.3c0-21.8,6.9-39.9,20.5-54.3c13.6-14.4,30.8-21.5,51.3-21.5c17.6,0,32.4,6.4,44.9,19.1V81.9z
			 M491.4,182.1c7.2,7.4,16,11.2,26.9,11.2c10.9,0,19.7-3.7,26.9-11.4c7.2-7.7,10.9-16.8,10.9-27.4c0-10.6-3.7-19.7-10.9-27.1
			c-7.2-7.4-16-11.2-26.9-11.2c-10.9,0-19.7,3.7-26.9,11.2c-6.9,7.4-10.4,16.5-10.4,27.1C481,165.4,484.4,174.4,491.4,182.1z"/>
	</g>
	<path class="st0" d="M236.1,95.5c-13.8-14-33-21.1-57.4-21.1h-34.9V113c3.6-0.1,7.1-0.3,10.7-0.3c0,0,0,0,0,0v-0.2h25.5
		c11.5,0,20.2,3.8,26.4,11.7c6.2,7.9,9.4,17.4,9.4,28.7s-3.2,21.1-9.4,28.9c-6.2,7.9-15.1,11.7-26.4,11.7h-25.5v-0.5c0,0,0,0,0,0
		c-3.6,0-7.1,0-10.7,0.1v38.5H178c24.7,0,44-7,57.9-21.1c14-14,21.1-33.2,21.1-57.4C256.9,128.6,249.9,109.5,236.1,95.5z"/>
	<circle class="st1" cx="102.9" cy="116.3" r="18.9"/>
	<circle class="st1" cx="102.9" cy="189.8" r="18.9"/>
	<g>
		<g>
			<path class="st1" d="M672.5,231.1L601.9,93L637,75.1l53.6,104.8l36.4-18.6l17,33.3L672.5,231.1z"/>
		</g>
	</g>
</g>
</svg>
